# xmcd
#
# Track frame offsets:
#	150
#	13574
#	33675
#	53076
#	74173
#	90036
#	113811
#	129451
#	144975
#
# Disc length: 2137 seconds
#
# Revision: 1
# Processed by: cddbd v1.5.2PL0 Copyright (c) Steve Scherf et al.
# Submitted via: audiograbber 1.83.01
#
DISCID=74085709
DTITLE=Tom Shadow And The Blues Cowboys - 1.0
DYEAR=1900
DGENRE=Country
TTITLE0=My Name Is Tom Shadow
TTITLE1=Fire's Hot
TTITLE2=Country Girls
TTITLE3=Bourbon Street
TTITLE4=Cowboy's Destiny
TTITLE5=Tears In My Eyes
TTITLE6=Fire In Her Eyes
TTITLE7=No Friend Anymore
TTITLE8=News On The Telephone
EXTD=
EXTT0=
EXTT1=
EXTT2=
EXTT3=
EXTT4=
EXTT5=
EXTT6=
EXTT7=
EXTT8=
PLAYORDER=
